# xmcd
#
# Track frame offsets: 
#        150
#        19397
#        35418
#        52443
#        67979
#        85449
#        102612
#        120090
#        134026
#        150804
#        167835
#        183486
#
# Disc length: 2629 seconds
#
# Revision: 0
# Processed by: cddbd v1.5.2PL0 Copyright (c) Steve Scherf et al.
# Submitted via: ExactAudioCopyFreeDBPlugin 1.0
#
DISCID=a50a430c
DTITLE=Sosnowski - The Hand Luggage Studio
DYEAR=2018
DGENRE=Blues
TTITLE0=Stealing, Robbing, Nakedy Swimming
TTITLE1=Głowa w Dol
TTITLE2=Prosta Piosenka o Przemijaniu
TTITLE3=Moonshine
TTITLE4=Where Do We Go
TTITLE5=Na złom
TTITLE6=What?
TTITLE7=Give Me My Money Back
TTITLE8=Graveyard
TTITLE9=Gniew
TTITLE10=Run On
TTITLE11=I Ain't Going Home
EXTD=
EXTT0=
EXTT1=
EXTT2=
EXTT3=
EXTT4=
EXTT5=
EXTT6=
EXTT7=
EXTT8=
EXTT9=
EXTT10=
EXTT11=
PLAYORDER=
